<svg version="1.1" id="Layer_1" xmlns="http://www.w3.org/2000/svg" xmlns:xlink="http://www.w3.org/1999/xlink" x="0px" y="0px"
	 width="100%" viewBox="0 0 358 616" enable-background="new 0 0 358 616" xml:space="preserve">
<path fill="#0AEF84" opacity="1.000000" stroke="none" 
	d="
M82.000000,617.000000 
	C81.555557,617.000000 81.111107,617.000000 80.200439,616.627319 
	C79.156212,614.636658 78.077332,613.019714 78.073502,611.400330 
	C77.979797,571.752686 77.955315,532.104553 78.130836,492.457428 
	C78.139786,490.435913 79.546402,487.808411 81.149811,486.508423 
	C89.648232,479.618225 98.442459,473.094238 107.088852,466.384949 
	C131.104431,447.749695 155.069839,429.049683 179.108978,410.444946 
	C196.288162,397.149384 213.525101,383.927979 230.789612,370.743347 
	C250.121567,355.979828 269.376007,341.108246 288.956970,326.681091 
	C295.494751,321.864044 299.891968,316.834930 298.070557,308.171448 
	C297.600922,305.937897 298.280457,303.474854 297.901001,301.206024 
	C297.646606,299.685028 296.803253,297.880310 295.629974,296.954926 
	C285.110596,288.658081 274.450897,280.539368 263.848907,272.346924 
	C243.162109,256.361694 222.540680,240.291260 201.788605,224.391281 
	C184.168335,210.890869 166.355988,197.641357 148.712692,184.170715 
	C127.163155,167.717636 105.638779,151.229706 84.276695,134.535263 
	C81.435738,132.315048 77.857307,130.472900 77.883812,125.414413 
	C78.093353,85.434448 77.978737,45.452835 78.084694,5.472050 
	C78.088646,3.979685 79.333450,2.490608 80.000000,1.000000 
	C80.444443,1.000000 80.888893,1.000000 81.761093,1.330988 
	C88.002472,6.153960 93.812202,10.650982 99.630447,15.136956 
	C115.154930,27.106607 130.671005,39.087234 146.213715,51.033180 
	C158.001022,60.092770 169.839966,69.085167 181.627396,78.144592 
	C197.170212,90.090271 212.673187,102.087799 228.215866,114.033661 
	C240.003265,123.093246 251.841873,132.086227 263.628845,141.146347 
	C277.874420,152.096298 292.097839,163.075134 306.315002,174.061951 
	C315.630432,181.260757 324.859131,188.573120 334.235382,195.691437 
	C342.411224,201.898422 350.739227,207.904922 359.000000,214.000000 
	C359.000000,277.020905 359.000000,340.041779 358.664581,403.626953 
	C353.501587,407.803497 348.647736,411.381256 343.851471,415.034607 
	C330.597107,425.130432 317.344604,435.228943 304.133087,445.380646 
	C290.012817,456.230743 275.958710,467.166840 261.841156,478.020477 
	C250.057007,487.080231 238.209839,496.057953 226.414230,505.102875 
	C210.731216,517.128662 195.072403,529.185974 179.400909,541.226807 
	C167.739609,550.186462 156.073029,559.139221 144.411743,568.098877 
	C128.740295,580.139709 113.034142,592.135803 97.422668,604.253906 
	C92.156723,608.341553 87.133919,612.742310 82.000000,617.000000 
z"/>
<path fill="#FFFFFF" opacity="1.000000" stroke="none" 
	d="
M79.531342,1.000000 
	C79.333450,2.490608 78.088646,3.979685 78.084694,5.472050 
	C77.978737,45.452835 78.093353,85.434448 77.883812,125.414413 
	C77.857307,130.472900 81.435738,132.315048 84.276695,134.535263 
	C105.638779,151.229706 127.163155,167.717636 148.712692,184.170715 
	C166.355988,197.641357 184.168335,210.890869 201.788605,224.391281 
	C222.540680,240.291260 243.162109,256.361694 263.848907,272.346924 
	C274.450897,280.539368 285.110596,288.658081 295.629974,296.954926 
	C296.803253,297.880310 297.646606,299.685028 297.901001,301.206024 
	C298.280457,303.474854 297.600922,305.937897 298.070557,308.171448 
	C299.891968,316.834930 295.494751,321.864044 288.956970,326.681091 
	C269.376007,341.108246 250.121567,355.979828 230.789612,370.743347 
	C213.525101,383.927979 196.288162,397.149384 179.108978,410.444946 
	C155.069839,429.049683 131.104431,447.749695 107.088852,466.384949 
	C98.442459,473.094238 89.648232,479.618225 81.149811,486.508423 
	C79.546402,487.808411 78.139786,490.435913 78.130836,492.457428 
	C77.955315,532.104553 77.979797,571.752686 78.073502,611.400330 
	C78.077332,613.019714 79.156212,614.636658 79.867111,616.627319 
	C53.714550,617.000000 27.429096,617.000000 1.000000,617.000000 
	C1.000000,563.312500 1.000000,509.624908 1.378853,455.467865 
	C3.491151,454.183167 5.432949,453.641571 6.923286,452.506958 
	C14.861259,446.463776 22.627090,440.194550 30.563505,434.149261 
	C43.804901,424.063202 57.219322,414.202850 70.400726,404.039764 
	C93.054962,386.572906 115.526939,368.869629 138.188553,351.412445 
	C154.483780,338.859558 171.004288,326.599182 187.308502,314.057770 
	C189.367523,312.473969 190.721741,309.973877 192.472015,307.812469 
	C173.739456,293.568665 155.604080,279.928436 137.632263,266.075958 
	C114.975594,248.612457 92.490273,230.926819 69.859901,213.428986 
	C51.380844,199.140961 32.863453,184.900269 14.208330,170.843948 
	C10.143311,167.781036 5.420078,165.591690 0.999997,163.000000 
	C1.000000,109.098183 1.000000,55.196369 1.000000,1.000000 
	C27.020153,1.000000 53.041420,1.000000 79.531342,1.000000 
z"/>
<path fill="#FFFFFF" opacity="1.000000" stroke="none" 
	d="
M359.000000,213.531342 
	C350.739227,207.904922 342.411224,201.898422 334.235382,195.691437 
	C324.859131,188.573120 315.630432,181.260757 306.315002,174.061951 
	C292.097839,163.075134 277.874420,152.096298 263.628845,141.146347 
	C251.841873,132.086227 240.003265,123.093246 228.215866,114.033661 
	C212.673187,102.087799 197.170212,90.090271 181.627396,78.144592 
	C169.839966,69.085167 158.001022,60.092770 146.213715,51.033180 
	C130.671005,39.087234 115.154930,27.106607 99.630447,15.136956 
	C93.812202,10.650982 88.002472,6.153960 82.094429,1.330988 
	C174.250839,1.000000 266.501678,1.000000 359.000000,1.000000 
	C359.000000,71.687370 359.000000,142.375031 359.000000,213.531342 
z"/>
<path fill="#FFFFFF" opacity="1.000000" stroke="none" 
	d="
M82.468658,617.000000 
	C87.133919,612.742310 92.156723,608.341553 97.422668,604.253906 
	C113.034142,592.135803 128.740295,580.139709 144.411743,568.098877 
	C156.073029,559.139221 167.739609,550.186462 179.400909,541.226807 
	C195.072403,529.185974 210.731216,517.128662 226.414230,505.102875 
	C238.209839,496.057953 250.057007,487.080231 261.841156,478.020477 
	C275.958710,467.166840 290.012817,456.230743 304.133087,445.380646 
	C317.344604,435.228943 330.597107,425.130432 343.851471,415.034607 
	C348.647736,411.381256 353.501587,407.803497 358.664581,404.095642 
	C359.000000,474.936584 359.000000,545.873169 359.000000,617.000000 
	C266.979187,617.000000 174.958252,617.000000 82.468658,617.000000 
z"/>
<path fill="#0AEF84" opacity="1.000000" stroke="none" 
	d="
M0.999997,163.468658 
	C5.420078,165.591690 10.143311,167.781036 14.208330,170.843948 
	C32.863453,184.900269 51.380844,199.140961 69.859901,213.428986 
	C92.490273,230.926819 114.975594,248.612457 137.632263,266.075958 
	C155.604080,279.928436 173.739456,293.568665 192.472015,307.812469 
	C190.721741,309.973877 189.367523,312.473969 187.308502,314.057770 
	C171.004288,326.599182 154.483780,338.859558 138.188553,351.412445 
	C115.526939,368.869629 93.054962,386.572906 70.400726,404.039764 
	C57.219322,414.202850 43.804901,424.063202 30.563505,434.149261 
	C22.627090,440.194550 14.861259,446.463776 6.923286,452.506958 
	C5.432949,453.641571 3.491151,454.183167 1.378853,454.999207 
	C1.000000,434.979095 1.000000,414.958221 1.364073,394.462128 
	C2.763456,393.527740 3.940140,393.252594 4.813045,392.582001 
	C19.572239,381.243103 34.264191,369.816620 49.030983,358.487701 
	C67.152054,344.585388 85.316360,330.739349 103.491508,316.907776 
	C107.208878,314.078827 107.090958,303.898163 103.336754,301.054108 
	C88.252419,289.626801 73.212082,278.141266 58.167648,266.661346 
	C39.105587,252.115662 20.055340,237.554489 0.999999,223.000000 
	C1.000000,203.312439 1.000000,183.624878 0.999997,163.468658 
z"/>
<path fill="#FFFFFF" opacity="1.000000" stroke="none" 
	d="
M0.999999,223.468658 
	C20.055340,237.554489 39.105587,252.115662 58.167648,266.661346 
	C73.212082,278.141266 88.252419,289.626801 103.336754,301.054108 
	C107.090958,303.898163 107.208878,314.078827 103.491508,316.907776 
	C85.316360,330.739349 67.152054,344.585388 49.030983,358.487701 
	C34.264191,369.816620 19.572239,381.243103 4.813045,392.582001 
	C3.940140,393.252594 2.763456,393.527740 1.364073,393.993469 
	C1.000000,337.312439 1.000000,280.624878 0.999999,223.468658 
z"/>
</svg>